<mxfile host="65bd71144e">
    <diagram id="S6CeCddJWwbJjZSZbgLv" name="第 1 页">
        <mxGraphModel dx="999" dy="607" grid="1" gridSize="10" guides="1" tooltips="1" connect="1" arrows="1" fold="1" page="1" pageScale="1" pageWidth="827" pageHeight="1169" math="0" shadow="0">
            <root>
                <mxCell id="0"/>
                <mxCell id="1" parent="0"/>
                <mxCell id="BA_frZNUqn9Z-N9T99C5-1" value="&amp;nbsp; &amp;nbsp;" style="rounded=1;whiteSpace=wrap;html=1;sketch=1;shadow=1;" parent="1" vertex="1">
                    <mxGeometry x="50" y="270" width="580" height="80" as="geometry"/>
                </mxCell>
                <mxCell id="BA_frZNUqn9Z-N9T99C5-2" value="不在全局区中的数据" style="rounded=1;whiteSpace=wrap;html=1;fillColor=#fff2cc;strokeColor=#d6b656;sketch=1;shadow=1;" parent="1" vertex="1">
                    <mxGeometry x="55" y="280" width="260" height="60" as="geometry"/>
                </mxCell>
                <mxCell id="BA_frZNUqn9Z-N9T99C5-5" value="局部变量、const修饰的局部变量（局部常量）" style="rounded=1;whiteSpace=wrap;html=1;fillColor=#fff2cc;strokeColor=#d6b656;sketch=1;shadow=1;" parent="1" vertex="1">
                    <mxGeometry x="50" y="160" width="270" height="60" as="geometry"/>
                </mxCell>
                <mxCell id="BA_frZNUqn9Z-N9T99C5-6" value="" style="shape=flexArrow;endArrow=classic;html=1;rounded=1;exitX=0.483;exitY=1.027;exitDx=0;exitDy=0;exitPerimeter=0;sketch=1;shadow=1;" parent="1" source="BA_frZNUqn9Z-N9T99C5-5" edge="1">
                    <mxGeometry width="50" height="50" relative="1" as="geometry">
                        <mxPoint x="250" y="140" as="sourcePoint"/>
                        <mxPoint x="180" y="267" as="targetPoint"/>
                    </mxGeometry>
                </mxCell>
                <mxCell id="BA_frZNUqn9Z-N9T99C5-8" value="在全局区中的数据" style="rounded=1;whiteSpace=wrap;html=1;fillColor=#dae8fc;strokeColor=#6c8ebf;sketch=1;shadow=1;" parent="1" vertex="1">
                    <mxGeometry x="340" y="280" width="280" height="60" as="geometry"/>
                </mxCell>
                <mxCell id="BA_frZNUqn9Z-N9T99C5-10" value="全局变量、静态变量(static)、常量（字符串常量、const修饰的全局变量(全局常量)）" style="rounded=1;whiteSpace=wrap;html=1;fillColor=#dae8fc;strokeColor=#6c8ebf;sketch=1;shadow=1;" parent="1" vertex="1">
                    <mxGeometry x="350" y="160" width="270" height="60" as="geometry"/>
                </mxCell>
                <mxCell id="BA_frZNUqn9Z-N9T99C5-11" value="" style="shape=flexArrow;endArrow=classic;html=1;rounded=1;exitX=0.483;exitY=1.027;exitDx=0;exitDy=0;exitPerimeter=0;sketch=1;shadow=1;" parent="1" source="BA_frZNUqn9Z-N9T99C5-10" edge="1">
                    <mxGeometry width="50" height="50" relative="1" as="geometry">
                        <mxPoint x="550" y="140" as="sourcePoint"/>
                        <mxPoint x="480" y="267" as="targetPoint"/>
                    </mxGeometry>
                </mxCell>
            </root>
        </mxGraphModel>
    </diagram>
</mxfile>